<?xml version="1.0" encoding="UTF-8"?>
<svg id="ADF_copy_2" data-name="ADF copy 2" xmlns="http://www.w3.org/2000/svg" viewBox="0 0 871.71 728.11">
  <defs>
    <style>
      .cls-1 {
        fill: #142118;
      }
    </style>
  </defs>
  <path class="cls-1" d="M696.05,668.27c0-6.73,1.09-27,1.79-42.39.65-14.14.36-65.99-.6-69.25-.89-29.25-1.13-21.23-1.95-53.97-3.46-27.67,1.73-33.73-3.46-31.13-10.38,2.59-63.25,7.48-87.13,6.29-13.73-1.19-29.85-7.16-35.22-17.91-6.52-7.58-3.52-31.89,4.78-38.21,8.96-7.16,19.7-14.33,33.43-14.33,19.81-.02,35.71-.38,55.52-.6,17.02-.18,25.33.83,27.46-4.18,0-10.75-1.79-71.05,0-117.61,1.79-46.57,4.18-78.21,5.97-95.52,2.1-20.27,11.94-78.81,14.93-91.34,6.72-26.22,32.31-86.05,66.87-93.73,26.92-5.98,55.15-9.69,75.22,15.52,10.88,10.35,16.05,25.71,17.31,37.61,4.26,49.69-10.75,121.2-23.88,143.88-10.15,19.7-11.94,34.63-29.85,48.96-8.96,0-15.8-2.9-18.51-10.15-2.27-6.08-2.39-17.31-1.79-29.85,1.28-21.02,6.83-36.35,11.94-42.99,4.78-14.33,7.76-19.1,12.54-47.16,4.78-28.06,2.98-53.73-8.36-56.72-11.34-2.99-18.51,5.97-23.28,11.34-4.78,5.37-8.96,19.7-11.94,39.4-2.99,19.7-4.3,58.01-5.58,86.61-1.36,30.31-1.73,55.08-1.73,79.56,0,24.48-.91,57.2-.86,87.34.6,29.25-.51,40.11,6.05,38.92,10.55-.11,28.39-.49,39.13-.49,14.93,0,32.84-1.19,31.64,2.39-1.19,3.58-19.1,10.15-26.27,14.33-7.76,4.18-19.7,10.75-34.63,17.91-7.16,1.79-9.55,12.54-8.36,22.09,0,19.1,3.58,45.37,5.37,66.27,1.79,20.9,1.47,55.35.6,71.05-.86,15.46-.6,41.19-2.39,63.28-3.12,19.79-7.76,39.4-25.07,54.93-11.34,7.76-33.43,14.33-48.36,5.37-4.65-4.68-12.54-8.96-13.73-20.3.4-13.77,2.39-21.44,2.39-35.22Z"/>
  <path class="cls-1" d="M472.16,125.58c-.26-26.65,8.36-33.43,16.12-46.57,9.55-10.75,22.69-23.88,43.9-16.61,14.58,7.75,22.03,17.88,24.16,31.53,1.79,24.48,2.77,54.21,3.58,77.61.87,24.91,0,49.69,0,74.63s1.16,77.18-1.79,100.9c-3.09,24.8-4.35,30.34-11.34,54.93-5.47,19.23-9.14,37.74-17.91,56.12-.8,1.68-21.71,42.99-29.85,51.94-11.57,12.71-22.91,27.5-35.82,38.81-20.7,18.12-42.99,34.63-72.24,31.05-45.37-1.79-69.87-32.21-71-54.76-1.73-22.48-1.84-60.46,8.31-91.51,4.18-13.73,14.21-44.12,24.48-57.91,16.72-23.88,26.93-34.46,36.42-40.6,15.54-10.05,42.11-17.29,59.7-9.55,4.87,2.14,20.79,8.72,26.76,9.31,1.79-13.73,2.59-62.27.86-102.05-1.73-39.78-2.71-85.89-4.34-107.27ZM367.63,482.68c0,7.63-2.34,33.95,7.81,33.35,10.15-.6,24.39-12,29.25-16.72,16.68-16.19,20-24.14,32.12-43.54,4.24-6.78,13.07-25.37-.96-20.56-7.88.19-22.4,3.67-16.23-7.54,1.94-3.51,12.33-14.23,13.73-17.91,3.4-8.89,5.96-17,7.16-26.27,1.62-12.49-4.51-18.31-15.52-13.13-11.26,5.29-24.13,15.11-30.85,26.22-17.19,28.43-22.95,57.32-26.52,86.09Z"/>
  <path class="cls-1" d="M200.52,323.79c7.76,14.33,4.65,29.61,3.58,45.97-.55,8.36-8.15,23.79-10.15,32.24-.71,3.01,7.35,13.04,9.55,16.12,7.16,13.13,12.95,22.05,14.93,41.79.6,5.97,4.17,32.67,5.37,37.02,3.6,13.03,11.14,20.29,22.09,20.9,8.98.5,32.96,7.9,17.58,11.36-11.34,2.99-27.73,8.94-39.07,13.71-11.34,4.78-32.84-.6-40.6-5.97-7.76-5.37-14.26-16.75-19.7-17.31-2.82-.29-5.71,8.9-8.36,11.34-4.18,6.57-12.34,16.58-21.49,25.67-5.48,5.44-24.69,23.38-49.55,25.67-22.39,2.06-29.25-1.19-48.36-8.96-19.1-7.76-33.37-33.84-35.22-54.93-5.37-45.37,10.15-82.99,15.52-102.09,6.68-23.75,26.18-57.86,40.6-78.21,14.59-20.6,26.27-35.22,49.55-41.79,23.28-6.57,31.64-6.57,54.93-1.19,23.28,5.37,31.05,14.33,38.81,28.66ZM137.83,353.04c-17.31-7.76-29.39,10.57-38.21,26.27-7.16,13.13-13.73,25.67-22.09,42.39-6.37,16.24-11.94,35.82-13.13,49.55-1.19,13.73-3.58,34.63,3.58,29.25,7.16-5.37,23.8-39.26,29.25-48.36,5.92-16.17,13.39-31.3,25.67-42.39,18.34-14.33,18.51-15.52,19.1-26.87.6-11.34,0-25.67-4.18-29.85Z"/>
</svg>