<?xml version="1.0" encoding="UTF-8"?>
<svg id="Vector_1" data-name="Vector 1" xmlns="http://www.w3.org/2000/svg" viewBox="0 0 1339.76 1119.05">
  <defs>
    <style>
      .cls-1 {
        fill: #fefae9;
        stroke-width: 0px;
      }
    </style>
  </defs>
  <path class="cls-1" d="M1069.77,1027.09c0-10.35,1.67-41.5,2.75-65.15.99-21.74.55-101.42-.92-106.44-1.37-44.96-.59-28.61-1.84-78.91-.92-26.61,3.67-45.88-10.09-41.29-35.74-.37-93.59.92-130.3-.92-21.1-1.84-45.88-11.01-54.14-27.53-10.03-11.65-5.4-49.01,7.34-58.73,13.76-11.01,30.28-22.02,51.38-22.02,30.45-.04,54.89-.59,85.33-.92,26.16-.28,38.94,1.28,42.21-6.42,0-16.52-2.75-109.19,0-180.76,2.75-71.57,6.42-120.2,9.18-146.81,3.22-31.15,18.35-121.12,22.94-140.39,10.33-40.3,49.66-132.25,102.77-144.06,41.37-9.2,84.76-14.9,115.61,23.86,16.73,15.91,24.67,39.51,26.61,57.81,6.55,76.37-16.52,186.27-36.7,221.14-15.6,30.28-18.35,53.22-45.88,75.24-13.76,0-24.28-4.45-28.44-15.6-3.49-9.34-3.67-26.61-2.75-45.88,1.97-32.31,10.5-55.87,18.35-66.07,7.34-22.02,11.93-29.36,19.27-72.49,7.34-43.13,4.59-82.58-12.85-87.17-17.43-4.59-28.44,9.18-35.78,17.43-7.34,8.26-13.76,30.28-18.35,60.56-4.59,30.28-2.62,92.76-4.59,136.72-2.09,46.59-3.67,97.26-3.67,134.88,0,37.62.84,80.29.92,126.63.92,44.96-3.67,53.22,6.42,51.38,16.22-.17,41.29-.92,57.81-.92,22.94,0,50.47-1.84,48.63,3.67-1.84,5.51-29.36,15.6-40.37,22.02-11.93,6.42-30.28,16.52-53.22,27.53-11.01,2.75-14.68,19.27-12.85,33.95,0,29.36,5.51,69.74,8.26,101.85,2.75,32.12,2.26,85.06.92,109.19-1.32,23.76-.92,63.31-3.67,97.26-4.79,30.42-11.93,60.56-38.54,84.42-17.43,11.93-51.38,22.02-74.32,8.26-7.14-7.2-19.27-13.76-21.1-31.2.61-21.16,3.67-32.95,3.67-54.14Z"/>
  <path class="cls-1" d="M725.68,193.01c-.4-40.96,12.85-51.38,24.77-71.57,14.68-16.52,34.87-36.7,67.47-25.52,22.41,11.91,33.86,27.48,37.13,48.46,2.75,37.62,4.25,83.32,5.51,119.29,1.33,38.29,0,76.36,0,114.7s1.78,118.62-2.75,155.07c-4.74,38.12-6.68,46.63-17.43,84.42-8.41,29.56-14.04,58-27.53,86.25-1.23,2.58-33.36,66.08-45.88,79.83-17.77,19.53-35.21,42.27-55.05,59.64-31.82,27.85-66.07,53.22-111.03,47.71-69.74-2.75-107.46-39.66-109.19-74.32-1.18-55.12-2.75-102.77,12.85-150.48,6.42-21.1,21.84-67.81,37.62-89.01,25.69-36.7,41.39-52.97,55.97-62.4,23.88-15.44,64.72-26.57,91.76-14.68,7.49,3.3,22.02,11.93,31.2,12.85,2.75-21.1,5.51-48.63,7.34-80.75,1.84-32.12-.26-206.63-2.75-239.49ZM566.94,746.31c0,11.73-5.51,47.71,10.09,46.8,15.6-.92,37.49-18.44,44.96-25.69,25.64-24.89,28.18-37.16,46.8-66.98,6.51-10.43,13.76-24.77-1.84-25.69-15.45-5.98-31.51-.21-22.02-17.43,2.98-5.4,18.94-21.87,21.1-27.53,5.22-13.66,9.17-26.12,11.01-40.37,2.48-19.2-6.93-28.14-23.86-20.19-17.3,8.13-34.64,25.13-44.96,42.21-26.42,43.69-35.81,90.66-41.29,134.88Z"/>
  <path class="cls-1" d="M308.18,497.64c11.93,22.02,7.15,45.51,5.51,70.65-.84,12.85-12.53,36.57-15.6,49.55-1.09,4.63,11.3,20.05,14.68,24.77,11.01,20.19,19.91,33.89,22.94,64.23.92,9.18,6.41,50.21,8.26,56.89,5.53,20.03,17.12,31.18,33.95,32.12,13.8.77,35.79,3.67,27.53,20.19-17.43,4.59-43.13,11.01-60.56,18.35-17.43,7.34-50.47-.92-62.4-9.18-11.93-8.26-21.92-25.74-30.28-26.61-4.34-.45-8.77,13.67-12.85,17.43-6.42,10.09-18.97,25.49-33.03,39.46-8.42,8.36-37.95,35.93-76.16,39.46-34.42,3.17-44.96-1.84-74.32-13.76-29.36-11.93-51.29-52.01-54.14-84.42-8.26-69.74,15.6-127.54,23.86-156.91,10.27-36.51,40.24-88.93,62.4-120.2,22.43-31.67,40.37-54.14,76.16-64.23,35.79-10.09,48.63-10.09,84.42-1.84,35.79,8.26,47.71,22.02,59.64,44.04ZM211.84,542.6c-26.61-11.93-45.17,16.24-58.73,40.37-11.01,20.19-21.1,39.46-33.95,65.15-9.79,24.97-18.35,55.05-20.19,76.16-1.84,21.1-5.51,53.22,5.51,44.96,11.01-8.26,36.57-60.34,44.96-74.32,9.1-24.85,20.58-48.11,39.46-65.15,6.82-6.15,28.44-23.86,29.36-41.29.92-17.43,0-39.46-6.42-45.88Z"/>
</svg>