<?xml version="1.0" encoding="UTF-8"?>
<svg id="Layer_2" data-name="Layer 2" xmlns="http://www.w3.org/2000/svg" viewBox="0 0 1080 1080">
  <defs>
    <style>
      .cls-1, .cls-2 {
        fill: #fef1e2;
      }

      .cls-2, .cls-3, .cls-4 {
        stroke: #fef1e2;
        stroke-miterlimit: 10;
        stroke-width: 9px;
      }

      .cls-3 {
        stroke-linecap: round;
      }

      .cls-3, .cls-4 {
        fill: none;
      }
    </style>
  </defs>
  <g id="Off_White" data-name="Off White">
    <path class="cls-1" d="M540,9c71.69,0,141.23,14.04,206.69,41.72,63.23,26.74,120.02,65.03,168.79,113.8,48.77,48.77,87.06,105.56,113.8,168.79,27.69,65.46,41.72,135,41.72,206.69s-14.04,141.23-41.72,206.69c-26.74,63.23-65.03,120.02-113.8,168.79-48.77,48.77-105.56,87.06-168.79,113.8-65.46,27.69-135,41.72-206.69,41.72s-141.23-14.04-206.69-41.72c-63.23-26.74-120.02-65.03-168.79-113.8-48.77-48.77-87.06-105.56-113.8-168.79-27.69-65.46-41.72-135-41.72-206.69s14.04-141.23,41.72-206.69c26.74-63.23,65.03-120.02,113.8-168.79,48.77-48.77,105.56-87.06,168.79-113.8,65.46-27.69,135-41.72,206.69-41.72M540,0C241.77,0,0,241.77,0,540s241.77,540,540,540,540-241.77,540-540S838.23,0,540,0h0Z"/>
    <line class="cls-3" x1="537" y1="221.45" x2="537" y2="958.55"/>
    <path class="cls-2" d="M537,203.7c-2.29,0-4.37-1.97-4.37-1.97l-20.89-17.87s-1.23-1.61-1.23-1.94v-59.27c0-2.31,2.27-4.2,5.05-4.2h42.91c2.78,0,5.05,1.89,5.05,4.2v59.27c0,.37-1.49,2.24-1.49,2.24l-20.2,17.3s-2.52,2.25-4.81,2.25Z"/>
    <rect class="cls-4" x="482.13" y="785.95" width="146.11" height="58" rx="9" ry="9"/>
    <rect class="cls-2" x="397.24" y="700.95" width="287.48" height="58" rx="9" ry="9"/>
    <rect class="cls-4" x="266.13" y="615.95" width="609.97" height="58" rx="9" ry="9"/>
    <rect class="cls-2" x="295.67" y="530.95" width="485.68" height="58" rx="9" ry="9"/>
    <rect class="cls-4" x="203.14" y="445.95" width="620.73" height="58" rx="9" ry="9"/>
    <rect class="cls-2" x="425.74" y="360.95" width="229" height="58" rx="9" ry="9"/>
    <rect class="cls-4" x="376.25" y="275.95" width="299.75" height="58" rx="9" ry="9"/>
  </g>
</svg>